#Comment line ignore any data following # character 
#Hierarchical Translation and Rotation (.htr) file 
[Header]	
#Header keywords are followed by a single value 
FileType HTR		#Single word string
DataType HTRS		#Translation followed by rotation and scale data
FileVersion 1		#integer
NumSegments 25		#integer
NumFrames 4		#integer
DataFrameRate 30		#integer, data frame rate in this file
EulerRotationOrder ZYX
CalibrationUnits mm
RotationUnits Degrees
GlobalAxisofGravity Y
BoneLengthAxis Y
ScaleFactor 1.00
[SegmentNames&Hierarchy]
#CHILD	PARENT
BN_Tick_Root GLOBAL
BN_Torso BN_Tick_Root
BN_L_Leg_Front01 BN_Torso
BN_L_Leg_Rear01 BN_Torso
BN_MetalTop BN_Torso
BN_Neck BN_Torso
BN_R_Leg_Front01 BN_Torso
BN_R_Leg_Rear01 BN_Torso
BN_Sack BN_Torso
BN_L_Leg_Front02 BN_L_Leg_Front01
BN_L_Leg_Front03 BN_L_Leg_Front02
BN_L_Leg_Rear02 BN_L_Leg_Rear01
BN_L_Leg_Rear03 BN_L_Leg_Rear02
BN_Head BN_Neck
BN_Needle BN_Head
BN_R_Leg_Front02 BN_R_Leg_Front01
BN_R_Leg_Front03 BN_R_Leg_Front02
BN_R_Leg_Rear02 BN_R_Leg_Rear01
BN_R_Leg_Rear03 BN_R_Leg_Rear02
BN_SackDef01 BN_Sack
BN_SackDef02 BN_Sack
BN_SackDef03 BN_Sack
BN_SackDef04 BN_Sack
BN_SackDef05 BN_Sack
BN_SackDef06 BN_Sack
[BasePosition]
#SegmentName Tx, Ty, Tz, Rx, Ry, Rz, BoneLength
BN_Tick_Root 0.000000 0.000000 0.000000 -90.000000 0.000000 0.000000 10.000000 
BN_Torso 0.000000 0.000000 0.000000 0.000000 0.000000 0.000000 10.000000 
BN_L_Leg_Front01 0.000000 0.000000 0.000000 0.000000 0.000000 0.000000 10.000000 
BN_L_Leg_Rear01 0.000000 0.000000 0.000000 0.000000 0.000000 0.000000 10.000000 
BN_MetalTop 0.000000 0.000000 0.000000 0.000000 0.000000 0.000000 10.000000 
BN_Neck 0.000000 0.000000 0.000000 0.000000 0.000000 0.000000 10.000000 
BN_R_Leg_Front01 0.000000 0.000000 0.000000 0.000000 0.000000 0.000000 10.000000 
BN_R_Leg_Rear01 0.000000 0.000000 0.000000 0.000000 0.000000 0.000000 10.000000 
BN_Sack 0.000000 0.000000 0.000000 0.000000 0.000000 0.000000 10.000000 
BN_L_Leg_Front02 0.000000 0.000000 0.000000 0.000000 0.000000 0.000000 10.000000 
BN_L_Leg_Front03 0.000000 0.000000 0.000000 0.000000 0.000000 0.000000 10.000000 
BN_L_Leg_Rear02 0.000000 0.000000 0.000000 0.000000 0.000000 0.000000 10.000000 
BN_L_Leg_Rear03 0.000000 0.000000 0.000000 0.000000 0.000000 0.000000 10.000000 
BN_Head 0.000000 0.000000 0.000000 0.000000 0.000000 0.000000 10.000000 
BN_Needle 0.000000 0.000000 0.000000 0.000000 0.000000 0.000000 10.000000 
BN_R_Leg_Front02 0.000000 0.000000 0.000000 0.000000 0.000000 0.000000 10.000000 
BN_R_Leg_Front03 0.000000 0.000000 0.000000 0.000000 0.000000 0.000000 10.000000 
BN_R_Leg_Rear02 0.000000 0.000000 0.000000 0.000000 0.000000 0.000000 10.000000 
BN_R_Leg_Rear03 0.000000 0.000000 0.000000 0.000000 0.000000 0.000000 10.000000 
BN_SackDef01 0.000000 0.000000 0.000000 0.000000 0.000000 0.000000 10.000000 
BN_SackDef02 0.000000 0.000000 0.000000 0.000000 0.000000 0.000000 10.000000 
BN_SackDef03 0.000000 0.000000 0.000000 0.000000 0.000000 0.000000 10.000000 
BN_SackDef04 0.000000 0.000000 0.000000 0.000000 0.000000 0.000000 10.000000 
BN_SackDef05 0.000000 0.000000 0.000000 0.000000 0.000000 0.000000 10.000000 
BN_SackDef06 0.000000 0.000000 0.000000 0.000000 0.000000 0.000000 10.000000 
#Beginning of Data. Separated by tabs
#Fr	Tx	Ty	Tz	Rx	Ry	Rz	SF
[BN_Tick_Root]
939 0.000000 0.000000 0.000000 0.000000 0.000000 -0.000020 0.000000
940 0.000000 0.000000 0.000000 0.000000 0.000000 -0.000020 0.000000
941 0.000000 0.000000 0.000000 0.000000 0.000000 -0.000020 0.000000
942 0.000000 0.000000 0.000000 0.000000 0.000000 -0.000020 0.000000
[BN_Torso]
939 -436.692932 277.602966 281.843048 18.477098 0.134544 -56.217064 589.236450
940 -436.898834 277.463348 284.640808 18.775991 0.134080 -56.219955 590.666443
941 -437.434540 277.100098 291.514313 19.428137 0.132611 -56.219326 594.233948
942 -437.970001 276.737030 298.375916 20.077396 0.131143 -56.218723 597.853882
[BN_L_Leg_Front01]
939 -68.477791 10.734189 -26.804373 -120.497765 63.067318 125.286324 74.316254
940 -68.477791 10.734189 -26.804373 -120.497765 63.067318 125.286324 74.316254
941 -68.477791 10.734189 -26.804373 -120.497765 63.067318 125.286324 74.316254
942 -68.477791 10.734189 -26.804373 -120.497765 63.067318 125.286324 74.316254
[BN_L_Leg_Rear01]
939 -72.133743 -73.994843 -18.268616 146.400146 53.651188 -122.533401 104.939293
940 -72.133743 -73.994843 -18.268616 146.400146 53.651188 -122.533401 104.939293
941 -72.133743 -73.994843 -18.268616 146.400146 53.651188 -122.533401 104.939293
942 -72.133743 -73.994843 -18.268616 146.400146 53.651188 -122.533401 104.939293
[BN_MetalTop]
939 0.000008 13.737477 26.403606 77.129715 -29.255928 -95.215637 29.763546
940 0.000008 13.737477 26.403606 77.178032 -28.971647 -95.322235 29.763546
941 0.000008 13.737477 26.403606 76.779419 -31.913195 -94.535423 29.763546
942 0.000008 13.737477 26.403606 76.322319 -34.823639 -93.704308 29.763546
[BN_Neck]
939 0.000014 95.233284 10.002091 -89.999672 -65.297531 89.999657 95.757088
940 0.000014 95.233284 10.002091 -89.999672 -65.297531 89.999657 95.757088
941 0.000014 95.233284 10.002091 -89.999672 -65.297531 89.999657 95.757088
942 0.000014 95.233284 10.002091 -89.999672 -65.297531 89.999657 95.757088
[BN_R_Leg_Front01]
939 68.477768 10.734107 -26.804314 33.876965 45.561348 -43.133308 74.316193
940 68.477768 10.734107 -26.804314 33.719315 45.329258 -43.354744 74.316193
941 68.477768 10.734107 -26.804314 33.563599 45.096748 -43.574345 74.316193
942 68.477768 10.734107 -26.804314 33.409779 44.863846 -43.792179 74.316193
[BN_R_Leg_Rear01]
939 72.133751 -73.994873 -18.268644 -146.396271 53.648869 -57.465195 104.939331
940 72.133751 -73.994873 -18.268644 -146.396271 53.648876 -57.465195 104.939331
941 72.133751 -73.994873 -18.268644 -146.396271 53.648876 -57.465195 104.939331
942 72.133751 -73.994873 -18.268644 -146.396271 53.648869 -57.465195 104.939331
[BN_Sack]
939 -0.000000 -78.024918 33.657791 93.681992 -1.895556 -95.940582 84.974907
940 -0.000000 -78.024918 33.657791 93.669670 -1.695369 -96.217697 84.974907
941 -0.000000 -78.024918 33.657791 93.631241 -1.184866 -96.824570 84.974907
942 -0.000000 -78.024918 33.657791 93.587479 -0.675460 -97.428993 84.974907
[BN_L_Leg_Front02]
939 142.805023 -0.000015 -0.000104 41.707451 -11.237774 -74.703026 142.805023
940 142.805023 -0.000015 -0.000104 41.683475 -12.293257 -73.287727 142.805023
941 142.805023 -0.000015 -0.000104 41.513336 -14.598676 -70.075417 142.805023
942 142.805023 -0.000015 -0.000104 41.111229 -16.967712 -66.490372 142.805023
[BN_L_Leg_Front03]
939 124.143021 -0.000045 0.000007 0.351305 -0.396484 117.698120 124.143021
940 124.143021 -0.000045 0.000007 0.353150 -0.405588 116.220222 124.143021
941 124.143021 -0.000045 0.000007 0.354054 -0.414080 112.800385 124.143021
942 124.143021 -0.000045 0.000007 0.353516 -0.424212 108.918015 124.143021
[BN_L_Leg_Rear02]
939 139.939041 0.000075 -0.000022 10.763679 43.735252 98.874130 139.939041
940 139.939041 0.000075 -0.000022 10.356413 43.845539 97.912018 139.939041
941 139.939041 0.000075 -0.000022 9.328505 44.107376 95.641724 139.939041
942 139.939041 0.000075 -0.000022 7.959078 44.391499 92.906509 139.939041
[BN_L_Leg_Rear03]
939 142.839615 0.000179 -0.000060 0.000122 -0.002344 -95.948135 142.839615
940 142.839615 0.000179 -0.000060 0.000107 -0.002345 -95.212311 142.839615
941 142.839615 0.000179 -0.000060 0.000071 -0.002346 -93.490860 142.839615
942 142.839615 0.000179 -0.000060 0.000031 -0.002347 -91.510292 142.839615
[BN_Head]
939 57.062447 -0.000030 0.000000 12.532206 17.575918 64.924507 57.062447
940 57.062447 -0.000030 0.000000 12.349024 17.705372 64.627098 57.062447
941 57.062447 -0.000030 0.000000 12.266943 17.753235 65.035187 57.062447
942 57.062447 -0.000030 0.000000 12.185314 17.801636 65.440521 57.062447
[BN_Needle]
939 36.532005 140.933151 -0.000102 0.000003 0.000030 87.896805 145.591003
940 36.876186 150.304520 -0.000115 0.000003 0.000030 87.896805 154.762085
941 37.265400 160.903748 -0.000138 0.000003 0.000030 87.896805 165.162735
942 37.499592 167.283585 -0.000048 0.000003 0.000030 87.896805 171.435165
[BN_R_Leg_Front02]
939 142.804947 -0.000060 0.000060 83.172173 53.672997 155.514999 142.804947
940 142.804947 -0.000060 0.000060 84.224960 55.239845 156.595184 142.804947
941 142.804947 -0.000060 0.000060 86.130020 58.977482 158.457382 142.804947
942 142.804947 -0.000060 0.000060 88.801712 62.990608 161.169174 142.804947
[BN_R_Leg_Front03]
939 124.143005 -0.000060 -0.000156 -0.353799 -0.390647 -119.108978 124.143005
940 124.143005 -0.000060 -0.000156 -0.351941 -0.396307 -117.906883 124.143005
941 124.143005 -0.000060 -0.000156 -0.353345 -0.404729 -115.369560 124.143005
942 124.143005 -0.000060 -0.000156 -0.352805 -0.414589 -112.394005 124.143005
[BN_R_Leg_Rear02]
939 139.939011 -0.000149 0.000015 -107.652077 76.964088 169.525345 139.939011
940 139.939011 -0.000149 0.000015 -108.684738 77.554985 168.451462 139.939011
941 139.939011 -0.000149 0.000015 -111.693008 78.921074 165.365631 139.939011
942 139.939011 -0.000149 0.000015 -116.570198 80.513290 160.405075 139.939011
[BN_R_Leg_Rear03]
939 142.839417 0.000075 0.000119 0.002344 0.000122 84.057076 142.839417
940 142.839417 0.000075 0.000119 0.002343 0.000139 83.218483 142.839417
941 142.839417 0.000075 0.000119 0.002340 0.000178 81.285645 142.839417
942 142.839417 0.000075 0.000119 0.002337 0.000223 79.080421 142.839417
[BN_SackDef01]
939 249.782364 -3.760681 42.949398 -128.408218 -44.374973 -11.740845 253.475876
940 249.782364 -3.760681 42.949398 -128.408218 -44.374973 -11.740845 253.475876
941 249.782364 -3.760681 42.949398 -128.408218 -44.374973 -11.740845 253.475876
942 249.782364 -3.760681 42.949398 -128.408218 -44.374973 -11.740845 253.475876
[BN_SackDef02]
939 138.789932 -62.131634 45.674427 32.077126 -27.375721 -88.781525 158.773865
940 138.789932 -62.131634 45.674427 32.077126 -27.375721 -88.781525 158.773865
941 138.789932 -62.131634 45.674427 32.077126 -27.375721 -88.781525 158.773865
942 138.789932 -62.131634 45.674431 32.077126 -27.375721 -88.781525 158.773865
[BN_SackDef03]
939 249.782257 -3.760551 -42.949657 18.144459 44.375008 -11.740894 253.475815
940 249.782257 -3.760551 -42.949657 18.144459 44.375008 -11.740894 253.475815
941 249.782257 -3.760551 -42.949657 18.144459 44.375008 -11.740894 253.475815
942 249.782257 -3.760552 -42.949657 18.144459 44.375008 -11.740894 253.475815
[BN_SackDef04]
939 138.789825 -62.131504 -45.674492 146.059982 27.375723 -88.781555 158.773743
940 138.789825 -62.131504 -45.674492 146.059982 27.375723 -88.781555 158.773743
941 138.789825 -62.131504 -45.674492 146.059982 27.375723 -88.781555 158.773743
942 138.789825 -62.131504 -45.674492 146.059982 27.375723 -88.781555 158.773743
[BN_SackDef05]
939 118.790131 46.167221 -63.831284 0.155741 51.314110 90.605110 142.537506
940 118.790131 46.167221 -63.831284 0.155741 51.314110 90.605110 142.537506
941 118.790131 46.167221 -63.831284 0.155741 51.314110 90.605110 142.537506
942 118.790131 46.167221 -63.831284 0.155741 51.314110 90.605110 142.537506
[BN_SackDef06]
939 118.790161 46.167294 63.831150 152.058487 -51.314072 90.605019 142.537491
940 118.790161 46.167294 63.831150 152.058487 -51.314072 90.605019 142.537491
941 118.790161 46.167294 63.831150 152.058487 -51.314072 90.605019 142.537491
942 118.790161 46.167294 63.831150 152.058487 -51.314072 90.605019 142.537491
